<svg width="26" height="26" viewBox="0 0 26 26" fill="none" xmlns="http://www.w3.org/2000/svg">
<path d="M21.125 10.5625C21.9867 10.5615 22.8127 10.2188 23.422 9.60953C24.0313 9.00024 24.374 8.17416 24.375 7.3125V4.875H21.9375C21.1056 4.87636 20.3063 5.19833 19.7057 5.77395C19.2848 5.01014 18.6669 4.37313 17.9162 3.92923C17.1655 3.48533 16.3096 3.25078 15.4375 3.25H13V5.6875C13.0014 6.97999 13.5155 8.21915 14.4294 9.13308C15.3434 10.047 16.5825 10.5611 17.875 10.5625H18.6875V21.125H8.9375V17.0625H9.75C10.6117 17.0615 11.4377 16.7188 12.047 16.1095C12.6563 15.5002 12.999 14.6742 13 13.8125V11.375H10.5625C9.73063 11.3764 8.93129 11.6983 8.33072 12.2739C7.90983 11.5101 7.29188 10.8731 6.54121 10.4292C5.79054 9.98533 4.9346 9.75078 4.0625 9.75H1.625V12.1875C1.62642 13.48 2.14049 14.7191 3.05442 15.6331C3.96835 16.547 5.20751 17.0611 6.5 17.0625H7.3125V21.125H1.625V22.75H24.375V21.125H20.3125V10.5625H21.125ZM20.3125 8.125C20.3129 7.69416 20.4843 7.28108 20.7889 6.97643C21.0936 6.67177 21.5067 6.50043 21.9375 6.5H22.75V7.3125C22.7496 7.74334 22.5782 8.15642 22.2736 8.46107C21.9689 8.76573 21.5558 8.93707 21.125 8.9375H20.3125V8.125ZM8.9375 14.625C8.93793 14.1942 9.10927 13.7811 9.41393 13.4764C9.71858 13.1718 10.1317 13.0004 10.5625 13H11.375V13.8125C11.3746 14.2433 11.2032 14.6564 10.8986 14.9611C10.5939 15.2657 10.1808 15.4371 9.75 15.4375H8.9375V14.625ZM7.3125 15.4375H6.5C5.63834 15.4365 4.81226 15.0938 4.20297 14.4845C3.59369 13.8752 3.25097 13.0492 3.25 12.1875V11.375H4.0625C4.92416 11.376 5.75024 11.7187 6.35953 12.328C6.96881 12.9373 7.31153 13.7633 7.3125 14.625V15.4375ZM18.6875 8.9375H17.875C17.0133 8.93653 16.1873 8.59381 15.578 7.98453C14.9687 7.37524 14.626 6.54916 14.625 5.6875V4.875H15.4375C16.2992 4.87597 17.1252 5.21869 17.7345 5.82797C18.3438 6.43726 18.6865 7.26334 18.6875 8.125V8.9375Z" fill="#1F2937"/>
</svg>
