<svg width="22" height="20" viewBox="0 0 22 20" fill="none" xmlns="http://www.w3.org/2000/svg">
<path d="M15.5645 0.436986L16.0386 2.13517L0.913776 9.47899C0.567776 9.64746 0.292792 9.93325 0.137784 10.2855C-0.0172237 10.6377 -0.0421938 11.0335 0.0673195 11.4025L1.01553 14.7988C1.11296 15.1711 1.33934 15.4968 1.65439 15.7178C1.96944 15.9388 2.35269 16.0408 2.73592 16.0057L4.65926 15.7639L5.41084 18.456C5.52673 18.8711 5.80277 19.2232 6.17824 19.4347C6.55371 19.6463 6.99785 19.7001 7.41295 19.5842L13.6735 17.8363C14.0886 17.7204 14.4407 17.4444 14.6523 17.0689C14.8639 16.6934 14.9176 16.2493 14.8017 15.8342L14.5264 14.8482L19.46 14.3903L19.9341 16.0885L21.4993 15.6515L17.1296 2.12014e-05L15.5645 0.436986ZM13.2366 16.2712L6.97599 18.019L6.30525 15.6165L12.8826 15.0034L13.2366 16.2712ZM2.57194 14.3306L1.62373 10.9342L16.4821 3.7238L19.0165 12.8017L2.57194 14.3306Z" fill="#1F2937"/>
</svg>
