<svg width="26" height="26" viewBox="0 0 26 26" fill="none" xmlns="http://www.w3.org/2000/svg">
<path d="M24.3555 12.8239L22.7305 5.51135C22.6852 5.30679 22.5625 5.12769 22.3881 5.0115L17.5131 1.7615C17.3796 1.67254 17.2228 1.62505 17.0624 1.625H8.93743C8.77702 1.62505 8.62022 1.67254 8.48674 1.7615L3.61174 5.0115C3.43738 5.12769 3.3147 5.30679 3.26935 5.51135L1.64435 12.8239C1.61427 12.9593 1.61933 13.1003 1.65905 13.2333L4.09655 21.3583C4.13517 21.4872 4.2052 21.6044 4.30034 21.6996C4.39549 21.7947 4.51277 21.8648 4.64166 21.9034L12.7667 24.3409L12.7708 24.3413C12.9202 24.3862 13.0796 24.3862 13.2291 24.3413L13.2332 24.3409L21.3582 21.9034C21.4871 21.8648 21.6044 21.7947 21.6995 21.6996C21.7947 21.6044 21.8647 21.4872 21.9033 21.3583L24.3408 13.2333C24.3805 13.1003 24.3856 12.9593 24.3555 12.8239ZM8.87739 13.5007L5.70108 7.14789L11.6173 9.29931L8.87739 13.5007ZM12.9999 10.1539L15.9159 14.625H10.0839L12.9999 10.1539ZM15.7476 16.25L12.9999 21.7455L10.2522 16.25H15.7476ZM14.3826 9.29931L20.2989 7.14789L17.122 13.5007L14.3826 9.29931ZM14.7793 7.42625L17.2949 3.56931L20.151 5.47316L14.7793 7.42625ZM12.9999 7.17958L10.4372 3.25H15.5626L12.9999 7.17958ZM11.2206 7.42592L5.84928 5.47284L8.70538 3.56899L11.2206 7.42592ZM7.28489 13.9503L3.38326 12.4872L4.35915 8.09802L7.28489 13.9503ZM11.4318 22.2438L6.14885 20.6589L8.69067 16.7614L11.4318 22.2438ZM17.3089 16.7614L19.8508 20.6589L14.5681 22.2438L17.3089 16.7614ZM21.6407 8.09802L22.6162 12.4871L18.7146 13.9501L21.6407 8.09802ZM3.68657 14.3362L7.41952 15.7359L5.15045 19.2156L3.68657 14.3362ZM20.8494 19.2156L18.5803 15.7359L22.3133 14.3362L20.8494 19.2156Z" fill="#1F2937"/>
</svg>
