<svg width="20" height="22" viewBox="0 0 20 22" fill="none" xmlns="http://www.w3.org/2000/svg">
<path d="M17.875 1.625H14.625V0H13V1.625H6.5V0H4.875V1.625H1.625C1.19419 1.62554 0.781176 1.79692 0.476545 2.10155C0.171915 2.40618 0.000537508 2.81919 0 3.25V19.5C0.000537508 19.9308 0.171915 20.3438 0.476545 20.6485C0.781176 20.9531 1.19419 21.1245 1.625 21.125H17.875C18.3058 21.1245 18.7188 20.9531 19.0235 20.6485C19.3281 20.3438 19.4995 19.9308 19.5 19.5V3.25C19.4995 2.81919 19.3281 2.40618 19.0235 2.10155C18.7188 1.79692 18.3058 1.62554 17.875 1.625ZM1.625 3.25H4.875V4.875H6.5V3.25H13V4.875H14.625V3.25H17.875V6.5H1.625V3.25ZM1.625 8.125H5.6875V13H1.625V8.125ZM12.1875 19.5H7.3125V14.625H12.1875V19.5ZM12.1875 13H7.3125V8.125H12.1875V13ZM13.8125 19.5V14.625H17.875L17.876 19.5H13.8125Z" fill="#1F2937"/>
</svg>
