<svg width="26" height="26" viewBox="0 0 26 26" fill="none" xmlns="http://www.w3.org/2000/svg">
<path d="M23.5625 11.375H22.75V8.125H21.125V11.375H19.5V8.125H17.875V11.375H17.0625C16.847 11.375 16.6403 11.4606 16.488 11.613C16.3356 11.7653 16.25 11.972 16.25 12.1875V15.4375C16.2512 16.3736 16.5751 17.2806 17.1672 18.0056C17.7592 18.7307 18.5831 19.2295 19.5 19.4179V21.9375C19.4998 22.1529 19.4142 22.3595 19.2618 22.5118C19.1095 22.6642 18.9029 22.7498 18.6875 22.75H4.0625C3.84701 22.75 3.64035 22.6644 3.48798 22.512C3.3356 22.3597 3.25 22.153 3.25 21.9375C3.25 21.722 3.3356 21.5153 3.48798 21.363C3.64035 21.2106 3.84701 21.125 4.0625 21.125H8.125C8.77147 21.125 9.39145 20.8682 9.84857 20.4111C10.3057 19.954 10.5625 19.334 10.5625 18.6875C10.5625 18.041 10.3057 17.421 9.84857 16.9639C9.39145 16.5068 8.77147 16.25 8.125 16.25H4.0625C3.84701 16.25 3.64035 16.1644 3.48798 16.012C3.3356 15.8597 3.25 15.653 3.25 15.4375C3.25 15.222 3.3356 15.0153 3.48798 14.863C3.64035 14.7106 3.84701 14.625 4.0625 14.625H8.125C8.77125 14.6243 9.39082 14.3673 9.84779 13.9103C10.3048 13.4533 10.5618 12.8337 10.5625 12.1875V8.9375H11.375C12.2367 8.93653 13.0627 8.59381 13.672 7.98453C14.2813 7.37524 14.624 6.54916 14.625 5.6875V3.25H12.1875C11.3556 3.25136 10.5563 3.57333 9.95572 4.14895C9.53483 3.38514 8.91688 2.74813 8.16621 2.30423C7.41554 1.86033 6.5596 1.62578 5.6875 1.625H3.25V4.0625C3.25142 5.35499 3.76549 6.59415 4.67942 7.50808C5.59335 8.42201 6.83251 8.93608 8.125 8.9375H8.9375V12.1875C8.93733 12.4029 8.85167 12.6095 8.69933 12.7618C8.547 12.9142 8.34044 12.9998 8.125 13H4.0625C3.41603 13 2.79605 13.2568 2.33893 13.7139C1.88181 14.171 1.625 14.791 1.625 15.4375C1.625 16.084 1.88181 16.704 2.33893 17.1611C2.79605 17.6182 3.41603 17.875 4.0625 17.875H8.125C8.34049 17.875 8.54715 17.9606 8.69952 18.113C8.8519 18.2653 8.9375 18.472 8.9375 18.6875C8.9375 18.903 8.8519 19.1097 8.69952 19.262C8.54715 19.4144 8.34049 19.5 8.125 19.5H4.0625C3.41603 19.5 2.79605 19.7568 2.33893 20.2139C1.88181 20.671 1.625 21.291 1.625 21.9375C1.625 22.584 1.88181 23.204 2.33893 23.6611C2.79605 24.1182 3.41603 24.375 4.0625 24.375H18.6875C19.3337 24.3743 19.9533 24.1173 20.4103 23.6603C20.8673 23.2033 21.1243 22.5837 21.125 21.9375V19.4179C22.0419 19.2295 22.8658 18.7307 23.4578 18.0056C24.0499 17.2806 24.3738 16.3736 24.375 15.4375V12.1875C24.375 11.972 24.2894 11.7653 24.137 11.613C23.9847 11.4606 23.778 11.375 23.5625 11.375ZM10.5625 6.5C10.5629 6.06916 10.7343 5.65608 11.0389 5.35143C11.3436 5.04677 11.7567 4.87543 12.1875 4.875H13V5.6875C12.9996 6.11834 12.8282 6.53142 12.5236 6.83607C12.2189 7.14073 11.8058 7.31207 11.375 7.3125H10.5625V6.5ZM8.125 7.3125C7.26334 7.31153 6.43726 6.96881 5.82797 6.35953C5.21869 5.75024 4.87597 4.92416 4.875 4.0625V3.25H5.6875C6.54916 3.25097 7.37524 3.59369 7.98453 4.20297C8.59381 4.81226 8.93653 5.63834 8.9375 6.5V7.3125H8.125ZM22.75 15.4375C22.75 16.084 22.4932 16.704 22.0361 17.1611C21.579 17.6182 20.959 17.875 20.3125 17.875C19.666 17.875 19.046 17.6182 18.5889 17.1611C18.1318 16.704 17.875 16.084 17.875 15.4375V13H22.75V15.4375Z" fill="#1F2937"/>
</svg>
