<svg width="26" height="26" viewBox="0 0 26 26" fill="none" xmlns="http://www.w3.org/2000/svg">
<path d="M3.25 16.25V17.875H6.97613L1.625 23.2261L2.77387 24.375L8.125 19.0239V22.75H9.75V16.25H3.25ZM19.5 17.0625H21.125V21.125H19.5V17.0625ZM16.25 13H17.875V21.125H16.25V13ZM13 14.625H14.625V21.125H13V14.625Z" fill="#1F2937"/>
<path d="M22.75 1.625H3.25C2.81916 1.62543 2.40608 1.79677 2.10143 2.10143C1.79677 2.40608 1.62543 2.81916 1.625 3.25V13H3.25V10.5625H22.7508L22.7516 22.75H13V24.375H22.75C23.1808 24.3744 23.5938 24.203 23.8984 23.8984C24.203 23.5938 24.3744 23.1808 24.375 22.75V3.25C24.3745 2.81918 24.2031 2.40614 23.8985 2.1015C23.5939 1.79686 23.1808 1.62549 22.75 1.625ZM9.75 8.9375H3.25V3.25H9.75V8.9375ZM11.375 8.9375V3.25H22.75L22.7506 8.9375H11.375Z" fill="#1F2937"/>
</svg>
